<svg width="165" height="164" viewBox="0 0 165 164" fill="none" xmlns="http://www.w3.org/2000/svg">
<rect x="0.391113" width="164" height="164" rx="17.8261" fill="#2D3037"/>
<path d="M43 119.478C43 108.649 51.7791 99.8695 62.6087 99.8695H82.2174V119.478C82.2174 130.308 73.4383 139.087 62.6087 139.087V139.087C51.7791 139.087 43 130.308 43 119.478V119.478Z" fill="#0ACF83"/>
<path d="M82.2173 82.0435C82.2173 72.1984 90.1983 64.2174 100.043 64.2174H103.609C113.454 64.2174 121.435 72.1984 121.435 82.0435V82.0435C121.435 91.8886 113.454 99.8696 103.609 99.8696H100.043C90.1983 99.8696 82.2173 91.8886 82.2173 82.0435V82.0435Z" fill="#1ABCFE"/>
<path d="M43 82.0434C43 91.8885 50.981 99.8695 60.8261 99.8695H82.2174V64.2173H60.8261C50.981 64.2173 43 72.1983 43 82.0434V82.0434Z" fill="#A259FF"/>
<path d="M82.2173 25V64.2174H101.826C112.656 64.2174 121.435 55.4383 121.435 44.6087V44.6087C121.435 33.7791 112.656 25 101.826 25H82.2173Z" fill="#FF7262"/>
<path d="M43 44.6087C43 55.4383 51.7791 64.2174 62.6087 64.2174H82.2174V25L62.6087 25C51.7791 25 43 33.7791 43 44.6087V44.6087Z" fill="#F24E1E"/>
</svg>
