<svg width="29" height="17" viewBox="0 0 29 17" fill="none" xmlns="http://www.w3.org/2000/svg">
<path d="M5 5L1 9L5 13" stroke="#EBBC2E"/>
<circle cx="20.5" cy="8.5" r="8.5" fill="#EBBC2E"/>
<path d="M24.512 10.684C24.512 12.004 23.576 13 21.872 13H17.708V4.456H21.632C23.336 4.456 24.272 5.368 24.272 6.688C24.272 7.636 23.792 8.344 22.856 8.62C23.948 8.86 24.512 9.664 24.512 10.684ZM23.48 10.624C23.48 9.712 22.892 9.028 21.764 9.028H18.74V12.208H21.764C22.892 12.208 23.48 11.536 23.48 10.624ZM23.24 6.76C23.24 5.848 22.652 5.248 21.524 5.248H18.74V8.26H21.524C22.652 8.26 23.24 7.672 23.24 6.76Z" fill="#2E2B3C"/>
</svg>
