<svg width="21" height="10" viewBox="0 0 21 10" fill="none" xmlns="http://www.w3.org/2000/svg">
<path d="M5.58327 10H6.83324V2.12824C6.36447 2.26075 5.94198 2.50139 5.58327 2.81763C5.58327 2.81769 5.58327 10 5.58327 10ZM3.08326 4.67467V9.99121L3.16386 9.99993H4.33323V4.6665H3.16386C3.16386 4.66657 3.08326 4.67467 3.08326 4.67467ZM0.583252 7.33232C0.583252 8.30053 1.08703 9.13993 1.83322 9.6081V5.05908C1.08703 5.52657 0.583252 6.36604 0.583252 7.33232ZM8.08328 10H9.33325V2.47516C8.9595 2.242 8.53639 2.08828 8.08328 2.02889V10ZM18.0026 4.66657H17.2995C17.3351 4.44906 17.3576 4.2284 17.3576 4.00025C17.3576 1.79072 15.6245 0 13.4864 0C12.3265 0 11.2927 0.53381 10.5833 1.37006V9.99993H18.0026C19.427 9.99993 20.5833 8.80612 20.5833 7.33225C20.5833 5.85976 19.427 4.66657 18.0026 4.66657Z" fill="#EBBC2E"/>
</svg>
