<svg width="13" height="11" viewBox="0 0 13 11" fill="none" xmlns="http://www.w3.org/2000/svg">
<g clip-path="url(#clip0_884_10)">
<path d="M2.81792 0.740439C4.30834 1.81573 5.91146 3.99597 6.50004 5.16602C7.08867 3.99606 8.69169 1.81571 10.1822 0.740439C11.2576 -0.0354538 13 -0.635792 13 1.27452C13 1.65603 12.7724 4.47944 12.6389 4.9378C12.1749 6.53141 10.484 6.93787 8.97986 6.69186C11.609 7.12188 12.2778 8.54627 10.8334 9.9707C8.0902 12.6759 6.89062 9.2919 6.5831 8.42483C6.52675 8.26587 6.50039 8.19151 6.5 8.25474C6.49961 8.19151 6.47324 8.26587 6.4169 8.42483C6.10952 9.2919 4.90996 12.6759 2.16659 9.9707C0.72217 8.54627 1.39097 7.1218 4.02014 6.69186C2.516 6.93787 0.82507 6.53141 0.36111 4.9378C0.22761 4.47939 0 1.65599 0 1.27452C0 -0.635792 1.74255 -0.0354538 2.81792 0.740439Z" fill="#DF1B3E"/>
</g>
<defs>
<clipPath id="clip0_884_10">
<rect width="13" height="11" fill="white"/>
</clipPath>
</defs>
</svg>
