<svg width="18" height="19" viewBox="0 0 18 19" fill="none" xmlns="http://www.w3.org/2000/svg">
<path d="M6.52576 12.6409V11.5533H7.61337H8.70099V12.6409V13.7285H7.61337H6.52576V12.6409ZM9.78861 11.0095V8.29044H10.8762H11.9638V11.0095V13.7285H10.8762H9.78861V11.0095ZM13.0515 9.37805V5.02759H14.1391H15.2267V9.37805V13.7285H14.1391H13.0515V9.37805Z" fill="#DE1D3F"/>
<path d="M3.26285 11.0095V8.29044H2.71904H2.17523V6.65901V5.02759H3.80666H5.43808V6.65901V8.29044H4.89427H4.35047V11.0095V13.7285H3.80666H3.26285V11.0095ZM4.35047 6.65901V6.11521H3.80666H3.26285V6.65901V7.20282H3.80666H4.35047V6.65901Z" fill="#DE1D3F"/>
<path d="M1.08765 16.4477V15.9039H8.70096H16.3143V16.4477V16.9915H8.70096H1.08765V16.4477ZM1.08765 2.3087V1.76489H8.70096H16.3143V2.3087V2.85251H8.70096H1.08765V2.3087Z" fill="#DE1D3F"/>
<path d="M0 9.37818V0.677246H8.70093H17.4019V9.37818V18.0791H8.70093H0V9.37818ZM16.3142 16.4477V15.9039H8.70093H1.08762V16.4477V16.9915H8.70093H16.3142V16.4477ZM4.35047 11.0096V8.29056H4.89427H5.43808V6.65914V5.02771H3.80666H2.17523V6.65914V8.29056H2.71904H3.26285V11.0096V13.7286H3.80666H4.35047V11.0096ZM3.26285 6.65914V6.11533H3.80666H4.35047V6.65914V7.20294H3.80666H3.26285V6.65914ZM8.70093 12.641V11.5534H7.61332H6.5257V12.641V13.7286H7.61332H8.70093V12.641ZM11.9638 11.0096V8.29056H10.8762H9.78855V11.0096V13.7286H10.8762H11.9638V11.0096ZM15.2266 9.37818V5.02771H14.139H13.0514V9.37818V13.7286H14.139H15.2266V9.37818ZM16.3142 2.30867V1.76486H8.70093H1.08762V2.30867V2.85248H8.70093H16.3142V2.30867Z" fill="#150B20"/>
</svg>
