<svg width="128" height="41" viewBox="0 0 128 41" fill="none" xmlns="http://www.w3.org/2000/svg">
<path d="M4.23611 25.1787C1.50141 25.1787 0 23.3914 0 20.3885C0 17.5466 1.37629 15.5983 4.12886 15.5983C6.89931 15.5983 8.2756 17.6002 8.2756 20.1204C8.2756 20.1919 8.2756 20.3349 8.25773 20.46H0.911568C0.965189 23.3735 2.3236 24.4817 4.23611 24.4817C5.93413 24.4817 6.93506 23.588 7.29254 22.2653H8.07899C7.65002 24.0884 6.43459 25.1787 4.23611 25.1787ZM4.12886 16.2954C2.3236 16.2954 1.10818 17.4036 0.911568 19.7808H7.36404C7.16742 17.4036 5.93413 16.2954 4.12886 16.2954Z" fill="#15DFB9"/>
<path d="M16.7133 25H15.6766L12.6202 20.9784L9.56378 25H8.52709L12.084 20.2634L8.70583 15.7771H9.74252L12.6202 19.5842L15.4979 15.7771H16.5346L13.1386 20.2634L16.7133 25Z" fill="#15DFB9"/>
<path d="M20.5679 25.1787C18.5124 25.1787 17.3328 24.1063 17.3328 22.3904C17.3328 21.0499 18.2086 20.0489 20.4071 19.8702L21.98 19.7272C23.4635 19.6021 23.8925 19.3161 23.8925 18.5118C23.8925 17.1534 23.1239 16.3133 21.3186 16.3133C19.6742 16.3133 18.7984 16.9925 18.6912 18.5118H17.8332C17.8332 16.7244 18.9057 15.5983 21.3186 15.5983C23.7316 15.5983 24.804 16.7244 24.804 18.5118V22.6406C24.804 23.8918 24.9113 24.6961 25.09 25H24.3036C24.0176 24.571 23.9104 24.1957 23.9104 23.0517C23.4278 24.4638 22.2302 25.1787 20.5679 25.1787ZM20.7824 24.4817C22.8558 24.4817 23.8925 22.8373 23.8925 20.8533V19.7451C23.6244 20.1026 22.963 20.317 21.98 20.3885L20.5858 20.5137C18.9414 20.6566 18.2443 21.3716 18.2443 22.3547C18.2443 23.5522 18.995 24.4817 20.7824 24.4817Z" fill="#15DFB9"/>
<path d="M38.3474 25H37.4537V18.9944C37.4537 17.2427 36.9711 16.3669 35.5055 16.3669C34.0756 16.3669 33.021 17.7253 33.021 19.8344V25H32.1094V18.9944C32.1094 17.2427 31.609 16.3669 30.1969 16.3669C28.767 16.3669 27.7303 17.7253 27.7303 19.8344V25H26.8366V15.7771H27.7303V17.6181C28.1414 16.3669 29.1424 15.5983 30.4293 15.5983C31.8771 15.5983 32.6635 16.3133 32.9316 17.7611C33.3964 16.2954 34.433 15.5983 35.72 15.5983C37.5431 15.5983 38.3474 16.6708 38.3474 18.905V25Z" fill="#15DFB9"/>
<path d="M41.2933 25H40.3817V15.7771H41.2933V25ZM40.8464 13.6501C40.4353 13.6501 40.2029 13.382 40.2029 13.0603C40.2029 12.7385 40.4353 12.4883 40.8464 12.4883C41.2396 12.4883 41.472 12.7385 41.472 13.0603C41.472 13.382 41.2396 13.6501 40.8464 13.6501Z" fill="#15DFB9"/>
<path d="M50.4454 25H49.5338V19.0123C49.5338 17.2427 48.9082 16.3669 47.1566 16.3669C45.3871 16.3669 44.2431 17.7432 44.2431 19.8523V25H43.3316V15.7771H44.2253V17.6181C44.7436 16.3669 45.7624 15.5983 47.3711 15.5983C49.4802 15.5983 50.4454 16.6708 50.4454 18.905V25Z" fill="#15DFB9"/>
<path d="M56.3566 25.1787C53.6219 25.1787 52.1205 23.3914 52.1205 20.3885C52.1205 17.5466 53.4968 15.5983 56.2494 15.5983C59.0198 15.5983 60.3961 17.6002 60.3961 20.1204C60.3961 20.1919 60.3961 20.3349 60.3782 20.46H53.0321C53.0857 23.3735 54.4441 24.4817 56.3566 24.4817C58.0546 24.4817 59.0556 23.588 59.413 22.2653H60.1995C59.7705 24.0884 58.5551 25.1787 56.3566 25.1787ZM56.2494 16.2954C54.4441 16.2954 53.2287 17.4036 53.0321 19.7808H59.4845C59.2879 17.4036 58.0546 16.2954 56.2494 16.2954Z" fill="#15DFB9"/>
<path fill-rule="evenodd" clip-rule="evenodd" d="M84.8484 6.83341C84.8484 3.05942 87.8726 0 91.6031 0C95.3337 0 98.3579 3.05942 98.3579 6.83341C98.3579 10.6074 95.3337 13.6668 91.6031 13.6668C87.8726 13.6668 84.8484 10.6074 84.8484 6.83341ZM91.6031 1.40751C88.641 1.40751 86.2397 3.83677 86.2397 6.83341C86.2397 9.83005 88.641 12.2593 91.6031 12.2593C94.5653 12.2593 96.9666 9.83005 96.9666 6.83341C96.9666 3.83677 94.5653 1.40751 91.6031 1.40751Z" fill="#15DFB9"/>
<path fill-rule="evenodd" clip-rule="evenodd" d="M71.3387 20.5006C71.3387 16.7266 74.3629 13.6672 78.0934 13.6672C81.824 13.6672 84.8482 16.7266 84.8482 20.5006C84.8482 24.2746 81.824 27.334 78.0934 27.334C74.3629 27.334 71.3387 24.2746 71.3387 20.5006ZM78.0934 15.0747C75.1313 15.0747 72.73 17.504 72.73 20.5006C72.73 23.4973 75.1313 25.9265 78.0934 25.9265C81.0556 25.9265 83.4568 23.4973 83.4568 20.5006C83.4568 17.504 81.0556 15.0747 78.0934 15.0747Z" fill="#15DFB9"/>
<path d="M111.867 20.5008C111.867 24.2748 108.843 27.3342 105.112 27.3342C101.382 27.3342 98.3575 24.2748 98.3575 20.5008C98.3575 16.7268 101.382 13.6674 105.112 13.6674C108.843 13.6674 111.867 16.7268 111.867 20.5008Z" fill="#15DFB9"/>
<path fill-rule="evenodd" clip-rule="evenodd" d="M84.8484 34.1666C84.8484 30.3926 87.8726 27.3332 91.6031 27.3332C95.3337 27.3332 98.3579 30.3926 98.3579 34.1666C98.3579 37.9406 95.3337 41 91.6031 41C87.8726 41 84.8484 37.9406 84.8484 34.1666ZM91.6031 28.7407C88.641 28.7407 86.2397 31.1699 86.2397 34.1666C86.2397 37.1632 88.641 39.5925 91.6031 39.5925C94.5653 39.5925 96.9666 37.1632 96.9666 34.1666C96.9666 31.1699 94.5653 28.7407 91.6031 28.7407Z" fill="#15DFB9"/>
<path d="M120.785 14.0066C120.504 13.7414 120.064 13.7567 119.802 14.0409C119.54 14.325 119.555 14.7704 119.836 15.0356L120.311 14.5211C119.836 15.0356 119.836 15.0356 119.836 15.0356L119.906 15.1022C119.953 15.1459 120.02 15.2102 120.107 15.2921C120.279 15.456 120.526 15.6906 120.822 15.9736C121.415 16.5398 122.204 17.2985 122.993 18.0701C123.783 18.8427 124.568 19.6236 125.154 20.2356C125.417 20.5113 125.634 20.7462 125.791 20.9274C125.634 21.1086 125.417 21.3435 125.154 21.6192C124.568 22.2311 123.783 23.0121 122.993 23.7847C122.204 24.5563 121.415 25.315 120.822 25.8812C120.526 26.1642 120.279 26.3988 120.107 26.5627C120.065 26.6024 120.027 26.638 119.995 26.669C119.96 26.7021 119.93 26.73 119.906 26.7526L119.836 26.819C119.836 26.819 119.836 26.8192 120.311 27.3337L119.836 26.819C119.555 27.0842 119.54 27.5298 119.802 27.8139C120.064 28.0981 120.504 28.1134 120.785 27.8482L120.311 27.3337C120.785 27.8482 120.785 27.8482 120.785 27.8482L120.786 27.847L120.857 27.7804C120.904 27.7363 120.972 27.6716 121.059 27.5892C121.232 27.4244 121.48 27.1887 121.778 26.9044C122.372 26.3361 123.166 25.5734 123.96 24.7967C124.753 24.0212 125.552 23.2272 126.153 22.598C126.453 22.2846 126.712 22.0039 126.899 21.7833C126.991 21.6745 127.077 21.5679 127.142 21.4724C127.175 21.4255 127.213 21.3668 127.245 21.3023L127.246 21.3011C127.266 21.2606 127.339 21.1159 127.339 20.9274C127.339 20.7388 127.266 20.5941 127.246 20.5537L127.245 20.5524C127.213 20.4879 127.175 20.4292 127.142 20.3824C127.077 20.2869 126.991 20.1803 126.899 20.0715C126.712 19.8508 126.453 19.5702 126.153 19.2568C125.552 18.6276 124.753 17.8336 123.96 17.0581C123.166 16.2814 122.372 15.5187 121.778 14.9504C121.48 14.6661 121.232 14.4304 121.059 14.2656C120.972 14.1832 120.904 14.1185 120.857 14.0744L120.786 14.0078L120.785 14.0066C120.785 14.0066 120.785 14.0066 120.311 14.5211L120.785 14.0066Z" fill="#15DFB9"/>
</svg>
