<svg width="20" height="10" viewBox="0 0 20 10" fill="none" xmlns="http://www.w3.org/2000/svg">
<path d="M5.00002 10H6.24999V2.12824C5.78122 2.26075 5.35873 2.50139 5.00002 2.81763C5.00002 2.81769 5.00002 10 5.00002 10ZM2.50001 4.67467V9.99121L2.58061 9.99993H3.74998V4.6665H2.58061C2.58061 4.66657 2.50001 4.67467 2.50001 4.67467ZM0 7.33232C0 8.30053 0.503778 9.13993 1.24997 9.6081V5.05908C0.503778 5.52657 0 6.36604 0 7.33232ZM7.50003 10H8.75V2.47516C8.37625 2.242 7.95314 2.08828 7.50003 2.02889V10ZM17.4194 4.66657H16.7162C16.7519 4.44906 16.7744 4.2284 16.7744 4.00025C16.7744 1.79072 15.0412 0 12.9032 0C11.7432 0 10.7094 0.53381 10 1.37006V9.99993H17.4194C18.8437 9.99993 20 8.80612 20 7.33225C20 5.85976 18.8437 4.66657 17.4194 4.66657Z" fill="#DF1B3E"/>
</svg>
