<svg width="273" height="113" viewBox="0 0 273 113" fill="none" xmlns="http://www.w3.org/2000/svg">
<path d="M4.35777 57.0478C4.77569 54.7242 6.80295 53.0328 9.1703 53.0328C12.2207 53.0328 14.5263 55.7877 13.9808 58.7805L11.844 70.5032C11.8095 70.6925 11.7922 70.8845 11.7922 71.0769C11.7922 71.7323 12.0319 72.3106 12.5114 72.8119C12.9908 73.3131 13.5701 73.5638 14.2494 73.5638H19.7631C20.642 73.5638 21.4411 73.2937 22.1603 72.754C22.9194 72.1756 23.379 71.4816 23.5387 70.6721L25.6964 58.9897C25.7762 58.6427 25.8162 58.2764 25.8162 57.891C25.8162 56.3487 25.097 54.3439 23.6585 51.8762C23.0593 50.8353 21.3612 47.7895 18.5644 42.7387C15.448 37.0709 13.6501 33.7938 13.1706 32.907C11.6523 30.0153 10.8932 27.1815 10.8932 24.4055C10.8932 24.2513 10.8932 24.0778 10.8932 23.8851C10.8932 23.2296 10.9531 22.5548 11.073 21.8609L13.6501 7.5183C14.0496 5.35921 15.1683 3.56637 17.0062 2.13982C18.7642 0.713274 20.7819 0 23.0593 0H37.4429C39.5204 0 41.3184 0.732551 42.8367 2.19766C44.3948 3.66276 45.174 5.47487 45.174 7.63396C45.174 8.13519 45.1341 8.54001 45.0542 8.84847L42.0275 25.1672C41.5934 27.5075 39.5466 29.2057 37.16 29.2057C34.0654 29.2057 31.7295 26.4058 32.2926 23.3713L34.2977 12.5642C34.3561 12.2497 34.5061 11.9443 34.5061 11.6245C34.5061 11.0461 34.2466 10.5063 33.7271 10.0051C33.2077 9.58101 32.6084 9.36897 31.9292 9.36897H26.4155C25.5364 9.36897 24.7574 9.63884 24.078 10.1786C23.3988 10.6798 22.9794 11.316 22.8196 12.0871L21.0815 21.2825C20.9617 21.9765 20.9017 22.6898 20.9017 23.4223C20.9017 26.1213 21.8207 28.9165 23.6585 31.8082C28.9682 40.168 32.3113 45.7102 33.6875 48.4347C34.2245 49.4978 34.724 50.5954 35.1479 51.7081C35.679 53.102 35.9446 54.5846 35.9446 56.156C35.9046 57.1583 35.7848 58.2187 35.5849 59.3368L32.5285 75.3565C32.1289 77.5156 31.0302 79.3277 29.2323 80.7927C27.4343 82.2194 25.3766 82.9327 23.0593 82.9327H8.73567C6.61811 82.9327 4.84015 82.2 3.40178 80.735C2.00339 79.2698 1.30419 77.4771 1.30419 75.3565V75.1175C1.30419 74.3914 1.36884 73.6668 1.49737 72.9521L4.35777 57.0478ZM52.8192 3.9848C53.2512 1.67483 55.2729 0 57.6292 0C60.689 0 62.9981 2.76898 62.4402 5.76905L50.328 70.9033V71.1925C50.328 71.8479 50.5478 72.4262 50.9873 72.9275C51.5068 73.4287 52.1061 73.6794 52.7853 73.6794H58.299C60.3765 73.6794 61.5952 72.7154 61.9547 70.7877L74.4947 4.06892C74.9382 1.70968 77.0038 0 79.4108 0C82.546 0 84.9083 2.84335 84.3253 5.91531L71.1243 75.4721C70.7247 77.5927 69.626 79.3663 67.828 80.7927C66.0301 82.2194 63.9724 82.9327 61.655 82.9327H47.2116C45.174 82.9327 43.416 82.2 41.9378 80.735C40.4593 79.2698 39.7201 77.5156 39.7201 75.4721V74.0262L52.8192 3.9848ZM82.9232 82.9327C79.7192 82.9327 77.3032 80.0301 77.8932 76.8897L91.4246 4.87155C91.9553 2.04697 94.4283 0 97.31 0C100.377 0 102.95 2.31296 103.259 5.35639C106.008 32.4518 107.383 51.7754 107.383 63.3273C107.764 52.9426 110.624 33.22 115.963 4.15942C116.405 1.75254 118.512 0 120.966 0C124.154 0 126.557 2.88804 125.97 6.01265L112.433 78.0635C111.902 80.8868 109.431 82.9327 106.55 82.9327C103.482 82.9327 100.91 80.618 100.603 77.5737C97.8911 50.6458 96.5351 31.8244 96.5351 21.1091C96.1536 30.2424 93.2932 49.4536 87.9538 78.7431C87.5121 81.1661 85.3927 82.9327 82.9232 82.9327ZM124.875 82.9327C121.671 82.9327 119.255 80.0301 119.845 76.8897L133.377 4.87155C133.907 2.04697 136.38 0 139.262 0C142.33 0 144.902 2.31296 145.211 5.35639C147.96 32.4518 149.335 51.7754 149.335 63.3273C149.716 52.9426 152.576 33.2201 157.915 4.15953C158.357 1.75258 160.464 0 162.918 0C166.106 0 168.51 2.8881 167.922 6.01276L154.385 78.0636C153.854 80.8868 151.383 82.9327 148.502 82.9327C145.434 82.9327 142.862 80.618 142.555 77.5738C139.843 50.6459 138.487 31.8244 138.487 21.1091C138.105 30.2423 135.245 49.4536 129.906 78.7431C129.464 81.1661 127.345 82.9327 124.875 82.9327ZM174.486 9.35662C175.505 3.93154 180.255 0 185.79 0H194.003C196.896 0 199.084 2.61125 198.569 5.45003C198.169 7.65194 196.247 9.2533 194.003 9.2533H187.086C185.839 9.2533 184.77 10.1411 184.545 11.3639L180.381 33.9328C180.224 34.7833 180.879 35.5674 181.746 35.5674H187.34C190.256 35.5674 192.449 38.2189 191.895 41.0741C191.472 43.2494 189.562 44.8205 187.34 44.8205H180.496C179.248 44.8205 178.177 45.709 177.951 46.9331L173.307 72.0582C173.151 72.9016 173.801 73.6794 174.661 73.6794H180.124C183.028 73.6794 185.219 76.3107 184.684 79.1578C184.273 81.3465 182.357 82.9327 180.124 82.9327H174.465C167.292 82.9327 161.883 76.4343 163.204 69.4035L174.486 9.35662ZM208.427 40.9457L205.218 5.584C204.946 2.585 207.314 0 210.334 0C212.988 0 215.206 2.01693 215.449 4.65289L217.117 22.7284L226.643 2.65857C227.414 1.03516 229.054 0 230.855 0C234.274 0 236.529 3.55042 235.067 6.63288L218.795 40.9457L222.118 77.3179C222.394 80.3329 220.013 82.9327 216.978 82.9327C214.307 82.9327 212.078 80.9021 211.837 78.2502L210.105 59.221L200.107 80.2618C199.332 81.8929 197.684 82.9327 195.874 82.9327C192.435 82.9327 190.168 79.36 191.641 76.2608L208.427 40.9457ZM228.684 75.3565V73.9106L241.03 7.5183C241.43 5.35921 242.529 3.56637 244.327 2.13982C246.123 0.713274 248.142 0 250.38 0H264.943C267.02 0 268.798 0.732551 270.277 2.19766C271.795 3.66276 272.554 5.45558 272.554 7.57613C272.554 8.1159 272.514 8.54001 272.435 8.84847L260.089 75.3565C259.689 77.5156 258.571 79.3277 256.733 80.7927C254.934 82.2194 252.895 82.9327 250.618 82.9327H236.295C234.179 82.9327 232.38 82.2 230.902 80.735C229.423 79.2313 228.684 77.4385 228.684 75.3565ZM239.232 70.7877V71.0769C239.232 71.7323 239.472 72.3106 239.951 72.8119C240.43 73.3131 241.03 73.5638 241.75 73.5638H247.262C249.34 73.5638 250.558 72.5998 250.918 70.6721L261.885 12.0871V11.7401C261.885 11.0461 261.647 10.4678 261.166 10.0051C260.687 9.58101 260.089 9.36897 259.369 9.36897H253.796C252.957 9.36897 252.178 9.63884 251.459 10.1786C250.779 10.6798 250.36 11.316 250.199 12.0871L239.232 70.7877Z" fill="#DF1B3E"/>
<path d="M157.389 95.8822C157.76 95.0808 157.559 94.0692 156.803 93.6097C156.423 93.3783 155.953 93.3244 155.507 93.322C154.983 93.3191 154.312 93.2447 153.595 93.2447C152.498 93.2447 146.117 93.2447 144.796 93.2447C144.516 93.2447 144.111 93.2335 143.682 93.2139C142.717 93.17 141.855 93.9356 141.855 94.8985C141.855 95.8258 142.653 96.5456 143.581 96.4921C143.995 96.4682 144.419 96.4513 144.796 96.4513C145.581 96.4513 149.2 96.4513 151.492 96.4513C152.372 96.4513 152.974 97.3022 152.577 98.0844C151.829 99.5588 150.713 101.204 149.532 102.541C147.645 104.624 144.786 106.997 141.635 108.62C140.569 109.17 140.244 110.615 141.077 111.477C141.572 111.99 142.342 112.135 142.972 111.801C146.455 109.95 149.79 107.142 152.324 104.231C154.468 101.746 156.312 98.3653 157.334 96.0038C157.351 95.9645 157.369 95.9238 157.389 95.8822ZM153.798 103.151C153.155 102.579 152.183 102.627 151.571 103.231C150.883 103.91 150.909 105.023 151.604 105.694C153.297 107.326 154.949 109.117 156.322 110.824C156.994 111.659 158.233 111.804 159.043 111.102C159.786 110.459 159.882 109.345 159.228 108.613C157.733 106.937 155.643 104.794 153.798 103.151ZM169.562 93.2487C168.888 92.7469 167.952 92.8495 167.376 93.4604C166.657 94.2223 166.785 95.4514 167.606 96.1014C168.711 96.9756 169.936 98.0262 170.924 98.9396C171.675 99.6345 172.865 99.6442 173.583 98.9146C174.264 98.2215 174.265 97.1168 173.538 96.4712C172.336 95.4037 170.809 94.1776 169.562 93.2487ZM167.937 108.442C166.689 108.743 166.03 110.184 166.725 111.26C167.107 111.852 167.807 112.164 168.496 112.011C171.543 111.336 174.339 110.105 176.602 108.755C180.317 106.523 183.434 103.418 185.359 100.287C185.644 99.824 185.64 99.2449 185.378 98.7688C184.753 97.6361 183.053 97.6634 182.315 98.7257C180.532 101.289 177.937 103.846 174.782 105.723C172.946 106.799 170.65 107.789 167.937 108.442ZM192.48 94.0989C191.559 94.0571 190.735 94.7695 190.735 95.6885C190.735 96.5848 191.52 97.2893 192.418 97.2594C192.666 97.2512 192.901 97.2467 193.103 97.2467H206.688C206.89 97.2467 207.104 97.2506 207.324 97.2579C208.225 97.2877 209.006 96.5887 209.006 95.6894C209.006 94.7665 208.185 94.0623 207.26 94.1018C207.065 94.1102 206.873 94.1147 206.688 94.1147H193.103C192.918 94.1147 192.705 94.1091 192.48 94.0989ZM197.939 107.525C197.939 108.479 198.714 109.253 199.671 109.253C200.628 109.253 201.403 108.479 201.403 107.525V97.5823C201.403 96.6282 200.628 95.8547 199.671 95.8547C198.714 95.8547 197.939 96.6282 197.939 97.5823V107.525ZM190.982 107.399C190.01 107.355 189.14 108.091 189.14 109.062C189.14 109.992 189.941 110.722 190.874 110.702C191.122 110.697 191.36 110.694 191.583 110.694H208.034C208.184 110.694 208.367 110.696 208.567 110.7C209.522 110.718 210.352 109.963 210.352 109.011C210.352 108.054 209.518 107.349 208.56 107.399C208.388 107.408 208.212 107.413 208.034 107.413H191.583C191.391 107.413 191.19 107.408 190.982 107.399ZM233.807 97.6195C234.13 96.6135 233.828 95.4566 232.88 94.9858L232.774 94.9334C232.297 94.6964 231.734 94.6697 231.201 94.6457C230.79 94.6272 230.336 94.5622 229.894 94.5622C229.262 94.5622 225.644 94.5622 223.748 94.5622C223.168 94.5622 222.648 94.913 222.431 95.4488C222.054 96.38 222.742 97.3958 223.749 97.3958H229.395C229.729 97.3958 229.976 97.702 229.881 98.0208C229.333 99.8597 228.018 102.425 226.504 104.157C224.744 106.131 222.615 107.914 219.215 109.337C218.033 109.833 217.688 111.412 218.646 112.262C219.109 112.673 219.765 112.792 220.334 112.549C224.491 110.778 227.238 108.609 229.445 105.922C231.713 103.163 233.134 99.8567 233.807 97.6195ZM225.378 93.7211C225.908 92.7927 225.484 91.5705 224.466 91.239C223.585 90.9521 222.634 91.4679 222.249 92.3085C222.068 92.7033 221.879 93.0621 221.718 93.3193C220.693 95.1132 218.984 97.6599 215.882 100.004C214.987 100.681 214.926 102.051 215.829 102.718C216.37 103.118 217.109 103.137 217.648 102.733C220.825 100.349 223.435 97.186 224.983 94.4379C225.077 94.2596 225.214 94.0088 225.378 93.7211ZM245.723 108.613C244.61 109.256 244.359 110.838 245.335 111.673C245.858 112.12 246.599 112.22 247.202 111.889C250.611 110.015 253.071 107.5 254.845 104.778C256.665 101.994 257.662 98.9618 258.31 96.0536C258.365 95.7872 258.441 95.4497 258.528 95.0822C258.772 94.0562 258.092 93.0179 257.044 92.876C255.976 92.7313 254.997 93.5886 254.85 94.6538C254.808 94.963 254.756 95.2777 254.695 95.5813C254.297 97.6444 253.599 100.428 251.729 103.088C250.337 105.113 248.404 107.063 245.723 108.613ZM243.553 94.002C243.083 93.2458 242.112 93.0008 241.318 93.4061C240.354 93.898 240.043 95.1332 240.606 96.0557C241.328 97.2385 242.133 98.6718 242.857 100.079C243.343 101.023 244.519 101.399 245.446 100.877C246.307 100.392 246.625 99.3125 246.146 98.4496C245.377 97.065 244.39 95.3489 243.553 94.002Z" fill="#DF1B3E"/>
<path d="M10.194 106.578C10.1102 106.647 10.0141 106.681 9.90562 106.681H8.75962L10.2605 98.4971H11.4065C11.4953 98.4971 11.5692 98.5241 11.6283 98.5782C11.6875 98.6372 11.7171 98.7085 11.7171 98.792C11.7171 98.8117 11.7146 98.8289 11.7097 98.8436L10.3419 106.313C10.3221 106.421 10.2729 106.509 10.194 106.578Z" fill="#DF1B3E"/>
<path d="M43.7452 104.464C43.7317 104.731 43.5105 104.941 43.2421 104.941C42.9055 104.941 42.6636 104.618 42.7592 104.296L43.5325 101.691C43.5926 101.489 43.8929 101.54 43.8823 101.751L43.7452 104.464Z" fill="#DF1B3E"/>
<path d="M91.1381 106.364C91.1381 106.34 91.1403 106.315 91.1447 106.291L92.4913 98.8436C92.5109 98.7453 92.5627 98.6642 92.6466 98.6003C92.7352 98.5315 92.8313 98.4971 92.9348 98.4971H93.6225C93.7112 98.4971 93.7851 98.5241 93.8442 98.5782C93.9035 98.6372 93.933 98.7109 93.933 98.7994C93.933 98.8288 93.9304 98.8582 93.9251 98.8872L92.5799 106.313C92.5357 106.558 92.3853 106.681 92.1289 106.681H91.4488C91.36 106.681 91.286 106.649 91.2269 106.585C91.1679 106.521 91.1381 106.448 91.1381 106.364Z" fill="#DF1B3E"/>
<path fill-rule="evenodd" clip-rule="evenodd" d="M10.3704 92.2476C4.64299 92.2476 0 96.8777 0 102.589C0 108.301 4.64299 112.931 10.3704 112.931H100.959C106.686 112.931 111.329 108.301 111.329 102.589C111.329 96.8777 106.686 92.2476 100.959 92.2476H10.3704ZM7.40281 107.246C7.34317 107.574 7.5959 107.876 7.9302 107.876H10.3345C10.6154 107.876 10.8643 107.785 11.0812 107.603C11.2981 107.416 11.4312 107.185 11.4805 106.91L13.011 98.4308C13.0257 98.3472 13.0331 98.2735 13.0331 98.2096C13.0331 97.9785 12.9444 97.7721 12.767 97.5902C12.5797 97.3985 12.3529 97.3027 12.0867 97.3027H9.65818C9.39904 97.3027 9.17701 97.4875 9.13078 97.7418L7.40281 107.246ZM16.2958 107.876C16.5999 107.876 16.8605 107.659 16.9147 107.36L18.6097 98.0381C18.6793 97.6551 18.3842 97.3027 17.9939 97.3027C17.6915 97.3027 17.4323 97.5183 17.3782 97.815L15.6769 107.136C15.6066 107.521 15.9033 107.876 16.2958 107.876ZM21.1933 106.601C21.1784 106.684 21.1709 106.768 21.1709 106.852V106.91C21.1709 107.175 21.262 107.404 21.4444 107.595C21.6268 107.782 21.8486 107.876 22.1099 107.876H23.8769C24.1579 107.876 24.4093 107.785 24.6311 107.603C24.8578 107.416 24.9958 107.185 25.0452 106.91L25.7576 103.019C25.864 102.439 25.4166 101.903 24.8244 101.903H24.5262C24.2402 101.903 23.9952 102.108 23.9442 102.388L23.8803 102.74C23.8477 102.919 23.9856 103.083 24.168 103.083C24.351 103.083 24.4891 103.249 24.4554 103.428L23.9139 106.313C23.8695 106.558 23.7193 106.681 23.4629 106.681H22.7827C22.6939 106.681 22.62 106.649 22.5609 106.585C22.5017 106.521 22.4721 106.448 22.4721 106.364C22.4721 106.34 22.4743 106.315 22.4787 106.291L23.8252 98.8436C23.8449 98.7453 23.8966 98.6642 23.9804 98.6003C24.0692 98.5315 24.1653 98.4971 24.2688 98.4971H24.9563C25.0452 98.4971 25.1191 98.5241 25.1782 98.5782C25.2373 98.6372 25.2668 98.7109 25.2668 98.7994C25.2668 98.8288 25.2642 98.8582 25.259 98.8872L24.9952 100.354C24.9287 100.724 25.2134 101.063 25.5897 101.063C25.8821 101.063 26.1326 100.854 26.1842 100.567L26.5681 98.4308C26.578 98.3914 26.583 98.3374 26.583 98.2685C26.583 97.9982 26.4894 97.7696 26.302 97.5829C26.1196 97.3961 25.9002 97.3027 25.644 97.3027H23.8474C23.5713 97.3027 23.3224 97.3936 23.1006 97.5755C22.8788 97.7573 22.7432 97.9859 22.6939 98.2612L21.1933 106.601ZM29.7421 107.876C30.0462 107.876 30.3068 107.659 30.361 107.36L32.056 98.0381C32.1257 97.6551 31.8306 97.3027 31.4402 97.3027C31.1378 97.3027 30.8787 97.5183 30.8245 97.815L29.1233 107.136C29.053 107.521 29.3496 107.876 29.7421 107.876ZM35.2199 107.128C35.1486 107.517 35.4486 107.876 35.8456 107.876C36.1532 107.876 36.4167 107.656 36.4714 107.354L38.0598 98.5939C38.07 98.5379 38.1189 98.4971 38.176 98.4971H38.4621C38.7494 98.4971 38.9963 98.2936 39.0503 98.0122C39.121 97.644 38.838 97.3027 38.4621 97.3027H36.6046C36.3145 97.3027 36.0662 97.5099 36.0151 97.7946C35.9493 98.1608 36.2316 98.4971 36.6046 98.4971H36.697C36.7498 98.4971 36.7896 98.5448 36.7802 98.5965L35.2199 107.128ZM40.6175 107.043C40.4818 107.453 40.788 107.876 41.2209 107.876C41.5023 107.876 41.7502 107.691 41.8302 107.422L42.0418 106.711C42.1432 106.37 42.4575 106.136 42.8142 106.136C43.2753 106.136 43.6423 106.521 43.6189 106.98L43.6051 107.251C43.5877 107.591 43.8594 107.876 44.2006 107.876C44.5226 107.876 44.7864 107.621 44.7965 107.3L45.0876 98.0479C45.1004 97.6401 44.7725 97.3027 44.3634 97.3027C44.0507 97.3027 43.7733 97.5027 43.6753 97.7989L40.6175 107.043ZM50.9683 106.696C50.5603 106.696 50.2515 106.328 50.3234 105.927L51.7378 98.046C51.8073 97.6586 51.5086 97.3027 51.1139 97.3027C50.8075 97.3027 50.545 97.5213 50.4904 97.8219L48.9648 106.213C48.8073 107.079 49.4745 107.876 50.357 107.876H51.0447C51.3306 107.876 51.5757 107.672 51.6267 107.391C51.6925 107.029 51.4136 106.696 51.0447 106.696H50.9683ZM61.2999 107.12C61.2283 107.513 61.5316 107.876 61.9328 107.876C62.2442 107.876 62.511 107.653 62.5659 107.347L63.2034 103.797C63.2844 103.345 63.6781 103.017 64.1379 103.017H64.4348C64.7194 103.017 64.9637 102.815 65.0162 102.536C65.0844 102.173 64.8052 101.837 64.4348 101.837H64.3493C63.9368 101.837 63.6246 101.465 63.6972 101.06L64.0166 99.2787C64.0977 98.8264 64.4922 98.4971 64.953 98.4971H65.2496C65.541 98.4971 65.7901 98.2879 65.8397 98.0016C65.903 97.6365 65.6211 97.3027 65.2496 97.3027H64.2721C63.5846 97.3027 62.9956 97.7931 62.8729 98.4677L61.2999 107.12ZM70.5939 97.3027C70.3015 97.3027 70.0511 97.5114 69.9992 97.7982L68.4036 106.615C68.3885 106.698 68.3809 106.783 68.3809 106.868V106.925C68.3809 107.185 68.4722 107.409 68.6546 107.595C68.8368 107.782 69.0537 107.876 69.3051 107.876H71.0869C71.3728 107.876 71.6267 107.785 71.8486 107.603C72.0703 107.421 72.2058 107.195 72.2552 106.925L73.8888 98.0297C73.9583 97.6513 73.6669 97.3027 73.2812 97.3027C72.9826 97.3027 72.7267 97.5157 72.6734 97.8087L71.1239 106.327C71.0797 106.573 70.9293 106.696 70.6729 106.696H69.9927C69.909 106.696 69.835 106.664 69.771 106.6C69.7167 106.536 69.6896 106.462 69.6896 106.379C69.6896 106.354 69.6918 106.33 69.6961 106.306L71.1886 98.0117C71.2551 97.6422 70.9703 97.3027 70.5939 97.3027ZM77.3792 104.064C77.0856 104.064 76.8345 104.274 76.7843 104.563L76.4264 106.619C76.4124 106.7 76.4053 106.781 76.4053 106.863V106.91C76.4053 107.18 76.4917 107.409 76.6642 107.595C76.8416 107.782 77.061 107.876 77.3222 107.876H79.0893C79.3752 107.876 79.6289 107.785 79.8508 107.603C80.0726 107.416 80.2082 107.185 80.2575 106.91L80.6346 104.867C80.6592 104.725 80.674 104.59 80.679 104.462C80.679 104.253 80.6433 104.056 80.572 103.872C80.5234 103.746 80.4696 103.621 80.4113 103.5C80.2486 103.161 79.8327 102.447 79.1633 101.358C78.9364 100.989 78.823 100.633 78.823 100.289C78.823 100.195 78.8305 100.104 78.8453 100.016L79.0597 98.8436C79.0794 98.7453 79.1312 98.6642 79.2149 98.6003C79.2988 98.5315 79.3948 98.4971 79.5033 98.4971H80.1836C80.2673 98.4971 80.3412 98.5241 80.4053 98.5782C80.4695 98.6421 80.5015 98.7109 80.5015 98.7847C80.5015 98.8099 80.4944 98.8344 80.4872 98.859C80.4829 98.8741 80.4785 98.8892 80.4758 98.9044L80.2235 100.309C80.1564 100.683 80.4446 101.026 80.8253 101.026C81.1214 101.026 81.3749 100.814 81.4271 100.524L81.8028 98.4308C81.8125 98.3914 81.8175 98.3398 81.8175 98.2759C81.8175 98.0007 81.7214 97.7696 81.5291 97.5829C81.3419 97.3961 81.12 97.3027 80.8637 97.3027H79.0893C78.8083 97.3027 78.5594 97.3936 78.3425 97.5755C78.1158 97.7573 77.9777 97.9859 77.9285 98.2612L77.6106 100.09C77.5957 100.178 77.5884 100.264 77.5884 100.348V100.414C77.5884 100.768 77.682 101.129 77.8694 101.498C77.9285 101.611 78.1504 102.029 78.5348 102.751C78.8798 103.395 79.0893 103.784 79.1633 103.916C79.3407 104.231 79.4294 104.487 79.4294 104.683C79.4294 104.732 79.4244 104.779 79.4147 104.823L79.1484 106.313C79.1287 106.416 79.072 106.504 78.9784 106.578C78.8896 106.647 78.791 106.681 78.6826 106.681H78.0024C77.9186 106.681 77.8471 106.649 77.788 106.585C77.7289 106.521 77.6992 106.448 77.6992 106.364C77.6992 106.34 77.7013 106.315 77.7056 106.291L77.9739 104.77C78.0389 104.402 77.7545 104.064 77.3792 104.064ZM84.9618 107.876C85.266 107.876 85.5266 107.659 85.5808 107.36L87.2757 98.0381C87.3453 97.6551 87.0502 97.3027 86.6599 97.3027C86.3575 97.3027 86.0983 97.5183 86.0442 97.815L84.3429 107.136C84.2727 107.521 84.5693 107.876 84.9618 107.876ZM89.837 106.852V106.91C89.837 107.175 89.9281 107.404 90.1105 107.595C90.293 107.782 90.5147 107.876 90.776 107.876H92.5429C92.8239 107.876 93.0753 107.785 93.2972 107.603C93.524 107.416 93.662 107.185 93.7112 106.91L95.2343 98.4308C95.2442 98.3914 95.249 98.3374 95.249 98.2685C95.249 97.9982 95.1554 97.7696 94.968 97.5829C94.7858 97.3961 94.5664 97.3027 94.3101 97.3027H92.5134C92.2374 97.3027 91.9884 97.3936 91.7667 97.5755C91.5449 97.7573 91.4094 97.9859 91.36 98.2612L89.8595 106.601C89.8445 106.684 89.837 106.768 89.837 106.852ZM97.7894 107.133C97.719 107.52 98.0171 107.876 98.4113 107.876C98.7177 107.876 98.9802 107.656 99.0333 107.355C99.6934 103.613 100.047 101.16 100.094 99.9939C100.094 101.363 100.262 103.77 100.598 107.215C100.635 107.59 100.951 107.876 101.329 107.876C101.684 107.876 101.989 107.622 102.052 107.274L103.731 98.0416C103.801 97.6568 103.504 97.3027 103.112 97.3027C102.807 97.3027 102.547 97.521 102.493 97.8199C101.833 101.532 101.48 104.051 101.433 105.376C101.433 103.9 101.262 101.429 100.922 97.963C100.885 97.5882 100.568 97.3027 100.191 97.3027C99.8352 97.3027 99.5307 97.5563 99.4673 97.9051L97.7894 107.133Z" fill="#DF1B3E"/>
<path d="M123.357 102.59C123.357 103.564 122.565 104.354 121.588 104.354C120.611 104.354 119.819 103.564 119.819 102.59C119.819 101.616 120.611 100.826 121.588 100.826C122.565 100.826 123.357 101.616 123.357 102.59Z" fill="#DF1B3E"/>
<path d="M133.105 102.59C133.105 103.564 132.313 104.354 131.336 104.354C130.359 104.354 129.566 103.564 129.566 102.59C129.566 101.616 130.359 100.826 131.336 100.826C132.313 100.826 133.105 101.616 133.105 102.59Z" fill="#DF1B3E"/>
</svg>
