<?xml version="1.0" encoding="UTF-8" standalone="no"?>
<!-- Created with Inkscape (http://www.inkscape.org/) -->

<svg
   width="38.961838mm"
   height="17.642044mm"
   viewBox="0 0 38.961838 17.642044"
   version="1.1"
   id="svg5"
   xml:space="preserve"
   xmlns="http://www.w3.org/2000/svg"
   xmlns:svg="http://www.w3.org/2000/svg"><defs
     id="defs2" /><g
     id="layer1"
     transform="translate(-120.26074,-65.603178)"><rect
       style="fill:#0d0d0d;fill-opacity:1;stroke:none;stroke-width:2.26283;stroke-linejoin:miter;stroke-dasharray:none"
       id="rect12088"
       width="38.961674"
       height="17.641853"
       x="120.26074"
       y="-83.245216"
       transform="scale(1,-1)" /><path
       id="path12090"
       style="display:inline;fill:#ffffff;fill-opacity:1;stroke:none;stroke-width:1.83621;stroke-linejoin:miter;stroke-dasharray:none"
       d="m 120.26077,65.60318 v 11.616862 h 38.96181 V 65.60318 Z" /><path
       id="path12092"
       style="display:inline;fill:#ffffff;fill-opacity:1;stroke:#ffffff;stroke-width:3.393;stroke-linejoin:miter;stroke-dasharray:none;stroke-opacity:1"
       d="m 129.01166,67.737933 a 6.2859535,6.2859535 0 0 0 -6.28592,6.285921 6.2859535,6.2859535 0 0 0 6.28592,6.286438 6.2859535,6.2859535 0 0 0 6.28592,-6.286438 6.2859535,6.2859535 0 0 0 -6.28592,-6.285921 z" /><path
       style="fill:#000000;stroke-width:0.0730815"
       d="m 141.41342,75.84031 c -1.53361,-0.371336 -2.9802,-1.817107 -3.33834,-3.336455 -0.14097,-0.598045 -0.14105,-1.578977 -1.9e-4,-2.176577 0.24221,-1.027475 1.03334,-2.136154 1.96642,-2.755682 1.28409,-0.852587 3.30744,-0.915329 4.67224,-0.144883 0.97034,0.547771 1.79274,1.541934 2.10987,2.550549 0.2389,0.759801 0.23771,2.211563 -0.002,2.907473 -0.48781,1.413879 -1.80593,2.61133 -3.24903,2.951579 -0.55204,0.130157 -1.6293,0.132154 -2.15858,0.004 z m 2.41953,-0.985111 c 0.95665,-0.372911 1.88091,-1.33104 2.17336,-2.253009 0.21975,-0.692767 0.21928,-1.70724 -0.001,-2.352385 -0.4612,-1.350263 -1.59421,-2.289358 -3.0032,-2.489188 -2.76418,-0.39203 -4.93744,2.355642 -3.94505,4.987782 0.34857,0.924515 1.28413,1.815723 2.26581,2.158377 0.64742,0.225979 1.86215,0.20102 2.51015,-0.05158 z m -2.06998,-1.612991 v -1.096224 h -0.25579 -0.25578 v -0.981383 c 0,-0.794723 0.0219,-1.003223 0.11484,-1.096224 0.0933,-0.09328 0.30379,-0.114842 1.12144,-0.114842 1.3037,0 1.24849,-0.05439 1.24849,1.229871 v 0.962578 h -0.25578 -0.25579 v 1.096224 1.096225 h -0.73082 -0.73081 z m 0.53129,-3.488088 c -0.23388,-0.0425 -0.45821,-0.362771 -0.45821,-0.654199 0,-0.554458 0.73351,-0.831208 1.13609,-0.428634 0.4659,0.465901 0.002,1.206422 -0.67788,1.082833 z"
       id="path12137" /><path
       style="fill:#000000;stroke-width:0.0730815"
       d="m 151.24476,75.826469 c -0.72265,-0.174934 -1.41073,-0.586852 -2.06216,-1.234505 -0.91993,-0.914594 -1.34673,-1.922648 -1.34673,-3.180795 0,-1.279188 0.42395,-2.266982 1.38152,-3.218909 1.00922,-1.003259 1.93368,-1.357979 3.36878,-1.292602 1.53974,0.07014 2.7625,0.761039 3.61244,2.041139 0.79569,1.19839 0.92676,3.083092 0.30648,4.407036 -0.54929,1.172434 -1.79891,2.187164 -3.05946,2.484368 -0.56901,0.13416 -1.63446,0.131384 -2.20087,-0.0057 z m 2.66825,-1.07124 c 0.58881,-0.291796 1.27705,-0.862727 1.52645,-1.266265 0.0879,-0.142142 0.14776,-0.268438 0.13312,-0.280658 -0.0605,-0.05054 -1.5549,-0.700912 -1.6105,-0.700912 -0.0332,0 -0.0604,0.04681 -0.0604,0.104016 0,0.261597 -0.72725,0.846044 -1.05276,0.846044 -0.0776,0 -0.11488,0.09885 -0.13081,0.34714 -0.0221,0.34379 -0.0249,0.347356 -0.29633,0.369817 l -0.27406,0.02268 v -0.36982 c 0,-0.338185 -0.0145,-0.36982 -0.16968,-0.36982 -0.25805,0 -0.7923,-0.201084 -1.02142,-0.384448 l -0.2045,-0.163663 0.3219,-0.315513 0.3219,-0.315517 0.27648,0.187621 c 0.29813,0.202319 0.86485,0.258086 1.13786,0.111972 0.16175,-0.08657 0.19425,-0.450861 0.05,-0.560621 -0.22443,-0.170785 -3.95961,-1.773175 -4.01175,-1.721037 -0.0321,0.03208 -0.0921,0.296063 -0.13326,0.586627 -0.25185,1.775804 0.82069,3.476128 2.55467,4.049954 0.31843,0.105381 0.58112,0.128589 1.25457,0.110842 0.81132,-0.02138 0.87731,-0.03509 1.38855,-0.288442 z m 2.12993,-3.300708 c 0.003,-1.088477 -0.28116,-1.826189 -0.99415,-2.580864 -1.45032,-1.535103 -3.77915,-1.5567 -5.28683,-0.04902 -0.25545,0.255454 -0.46446,0.489843 -0.46446,0.520865 0,0.05895 1.51697,0.75065 1.64433,0.749777 0.0402,-2.76e-4 0.12982,-0.100196 0.19917,-0.222045 0.12381,-0.217563 0.61967,-0.503491 0.87879,-0.506742 0.10474,-0.0014 0.12789,-0.06855 0.12789,-0.371425 v -0.369821 l 0.27406,0.02268 c 0.27047,0.02237 0.27434,0.02712 0.29603,0.362381 0.0212,0.328488 0.0309,0.341354 0.29232,0.389912 0.1487,0.02762 0.39426,0.119565 0.54571,0.20433 l 0.27535,0.154113 -0.30494,0.310708 c -0.29568,0.301277 -0.31113,0.307501 -0.50923,0.205058 -0.24751,-0.127992 -0.87947,-0.139328 -1.00084,-0.01795 -0.22765,0.227645 -0.0865,0.316862 1.90377,1.20312 1.68823,0.751771 2.00135,0.869496 2.05633,0.773136 0.0357,-0.06252 0.0657,-0.412716 0.0667,-0.778213 z"
       id="path12139" /><path
       style="fill:#000000;stroke-width:0.115516"
       d="m 127.33781,81.149601 c -2.54636,-0.696472 -4.61277,-2.783735 -5.25424,-5.307265 -0.0963,-0.37867 -0.17501,-1.134489 -0.17501,-1.679593 0,-2.021951 0.67011,-3.5833 2.18369,-5.08796 1.10709,-1.100548 1.95865,-1.591549 3.31079,-1.908963 1.17659,-0.276199 2.9557,-0.181026 4.09075,0.21884 2.06611,0.72786 3.72633,2.419734 4.40375,4.487674 0.40044,1.222436 0.40044,3.358377 0,4.580813 -0.68273,2.084182 -2.48225,3.84881 -4.63217,4.542357 -0.99528,0.321066 -3.02582,0.400735 -3.92756,0.154097 z m 3.11895,-1.336418 c 1.29823,-0.298998 2.84662,-1.387081 3.56339,-2.504065 1.68156,-2.62049 0.87897,-6.311091 -1.74552,-8.026436 -2.29703,-1.50133 -5.29107,-1.210548 -7.23228,0.702405 -2.40897,2.373899 -2.38779,6.047124 0.0484,8.381314 0.59873,0.573688 1.67504,1.186535 2.468,1.405284 0.65339,0.180244 2.19955,0.202385 2.8981,0.04152 z m -4.45763,-3.667622 c -0.82085,-0.515377 -1.18874,-1.497763 -0.96012,-2.563777 0.23067,-1.07559 0.92033,-1.613853 2.06777,-1.613853 0.76077,0 1.17363,0.158855 1.60046,0.615811 0.31581,0.33811 0.29118,0.407214 -0.24722,0.69373 l -0.39864,0.212143 -0.29877,-0.298777 c -0.64735,-0.647354 -1.46444,-0.09966 -1.46444,0.981618 0,1.087389 0.94494,1.60941 1.61378,0.891501 0.22758,-0.244281 0.24527,-0.245768 0.64663,-0.05437 0.51056,0.243473 0.48748,0.451807 -0.1029,0.929352 -0.38663,0.3127 -0.54498,0.361792 -1.27069,0.393929 -0.6644,0.02943 -0.89984,-0.0077 -1.1858,-0.187308 z m 4.10203,-0.05068 c -0.51546,-0.347374 -0.86602,-0.885815 -0.96021,-1.474889 -0.1727,-1.080031 0.26482,-2.051202 1.12586,-2.49905 0.39278,-0.204288 1.57347,-0.222127 1.94787,-0.02943 0.31935,0.164365 0.89894,0.692935 0.89894,0.819806 0,0.05036 -0.21596,0.201738 -0.47993,0.336403 -0.43914,0.224029 -0.48902,0.228598 -0.58691,0.05369 -0.0588,-0.105129 -0.23632,-0.240329 -0.39445,-0.300444 -0.6737,-0.256143 -1.19557,0.246084 -1.19557,1.150586 0,0.619923 0.1935,1.007246 0.58405,1.169015 0.38214,0.158282 0.72446,0.07103 1.03682,-0.264256 0.21877,-0.234802 0.24137,-0.236613 0.63144,-0.0506 0.45746,0.218145 0.47684,0.273109 0.22365,0.634569 -0.50048,0.714533 -2.07155,0.96676 -2.83156,0.454592 z"
       id="path12141" /><text
       xml:space="preserve"
       style="font-style:normal;font-variant:normal;font-weight:normal;font-stretch:normal;font-size:3.175px;font-family:Manrope;-inkscape-font-specification:'Manrope, Normal';font-variant-ligatures:normal;font-variant-caps:normal;font-variant-numeric:normal;font-variant-east-asian:normal;fill:#ffffff;fill-opacity:1;stroke:none;stroke-width:3.39299;stroke-linejoin:miter;stroke-dasharray:none;stroke-opacity:1"
       x="140.64331"
       y="81.418068"
       id="text12228"><tspan
         id="tspan12226"
         style="font-style:normal;font-variant:normal;font-weight:normal;font-stretch:normal;font-size:3.175px;font-family:Manrope;-inkscape-font-specification:'Manrope, Normal';font-variant-ligatures:normal;font-variant-caps:normal;font-variant-numeric:normal;font-variant-east-asian:normal;fill:#ffffff;stroke:none;stroke-width:3.393"
         x="140.64331"
         y="81.418068">BY</tspan></text><text
       xml:space="preserve"
       style="font-style:normal;font-variant:normal;font-weight:normal;font-stretch:normal;font-size:3.175px;font-family:Manrope;-inkscape-font-specification:'Manrope, Normal';font-variant-ligatures:normal;font-variant-caps:normal;font-variant-numeric:normal;font-variant-east-asian:normal;fill:#ffffff;fill-opacity:1;stroke:none;stroke-width:3.39299;stroke-linejoin:miter;stroke-dasharray:none;stroke-opacity:1"
       x="150.28894"
       y="81.418068"
       id="text12282"><tspan
         id="tspan12280"
         style="font-style:normal;font-variant:normal;font-weight:normal;font-stretch:normal;font-size:3.175px;font-family:Manrope;-inkscape-font-specification:'Manrope, Normal';font-variant-ligatures:normal;font-variant-caps:normal;font-variant-numeric:normal;font-variant-east-asian:normal;fill:#ffffff;stroke:none;stroke-width:3.393"
         x="150.28894"
         y="81.418068">NC</tspan></text></g></svg>
