<svg width="15" height="14" viewBox="0 0 15 14" fill="none" xmlns="http://www.w3.org/2000/svg">
<path d="M3.81792 1.74044C5.30834 2.81573 6.91146 4.99597 7.50004 6.16602C8.08867 4.99606 9.69169 2.81571 11.1822 1.74044C12.2576 0.964547 14 0.364209 14 2.27452C14 2.65603 13.7724 5.47944 13.6389 5.9378C13.1749 7.53141 11.484 7.93787 9.97986 7.69186C12.609 8.12188 13.2778 9.54627 11.8334 10.9707C9.0902 13.6759 7.89062 10.2919 7.5831 9.42483C7.52675 9.26587 7.50039 9.19151 7.5 9.25474C7.49961 9.19151 7.47324 9.26587 7.4169 9.42483C7.10952 10.2919 5.90996 13.6759 3.16659 10.9707C1.72217 9.54627 2.39097 8.1218 5.02014 7.69186C3.516 7.93787 1.82507 7.53141 1.36111 5.9378C1.22761 5.47939 1 2.65599 1 2.27452C1 0.364209 2.74248 0.964547 3.81785 1.74044H3.81792Z" fill="#15DFB9"/>
</svg>
