<svg width="15" height="15" viewBox="0 0 15 15" fill="none" xmlns="http://www.w3.org/2000/svg">
<path d="M11.6187 3.68123C10.8499 3.32498 10.0312 3.06248 9.16869 2.91248C9.06244 3.09998 8.93744 3.35623 8.85619 3.56248C7.94369 3.42498 7.03744 3.42498 6.1437 3.56248C6.0562 3.35623 5.9312 3.09998 5.82495 2.91248C4.96245 3.06248 4.1437 3.32498 3.37495 3.68123C1.82495 6.01873 1.4062 8.3 1.61245 10.5437C2.6437 11.3125 3.63745 11.775 4.6187 12.0812C4.86245 11.75 5.07495 11.3937 5.26245 11.025C4.9062 10.8937 4.5687 10.725 4.24995 10.5312C4.33745 10.4687 4.4187 10.4 4.49995 10.3375C6.45619 11.25 8.57494 11.25 10.5062 10.3375C10.5874 10.4062 10.6687 10.4687 10.7562 10.5312C10.4374 10.725 10.0937 10.8875 9.74369 11.025C9.93119 11.3937 10.1437 11.75 10.3874 12.0812C11.3687 11.775 12.3687 11.3125 13.3937 10.5437C13.6374 7.9375 12.9749 5.68123 11.6312 3.68123H11.6187ZM5.52495 9.16874C4.93745 9.16874 4.4562 8.62499 4.4562 7.95624C4.4562 7.28749 4.92495 6.74374 5.52495 6.74374C6.12495 6.74374 6.59994 7.28749 6.59369 7.95624C6.59369 8.61874 6.12495 9.16874 5.52495 9.16874ZM9.46869 9.16874C8.88119 9.16874 8.39994 8.62499 8.39994 7.95624C8.39994 7.28749 8.86869 6.74374 9.46869 6.74374C10.0687 6.74374 10.5437 7.28749 10.5374 7.95624C10.5374 8.61874 10.0687 9.16874 9.46869 9.16874Z" fill="#15DFB9"/>
</svg>
