<svg width="15" height="15" viewBox="0 0 15 15" fill="none" xmlns="http://www.w3.org/2000/svg">
<path d="M2.54653 1.87112C2.58293 1.22732 2.73671 0.947356 3.17773 0.722537C3.65226 0.480562 4.40069 0.59317 5.28137 1.03913C5.66069 1.23131 5.69932 1.23522 6.36409 1.14999C7.24772 1.03666 8.38528 1.03706 9.20084 1.15102C9.81759 1.23721 9.85809 1.23291 10.2383 1.04033C11.4884 0.407299 12.4753 0.448719 12.8327 1.14919C13.0111 1.49882 13.0442 2.40607 12.9059 3.15434C12.8292 3.56918 12.8373 3.62097 13.0221 3.8932C14.3219 5.80866 13.3853 8.9135 11.158 10.0722C10.9876 10.1609 10.844 10.2157 10.7269 10.2604C10.3675 10.3977 10.2583 10.4394 10.3905 11.0711C10.4541 11.375 10.5307 12.1305 10.5608 12.7501C10.6153 13.8701 10.6145 13.8779 10.418 14.1064C10.1507 14.4172 9.76528 14.4225 9.50416 14.1189C9.33384 13.9209 9.31722 13.8274 9.31722 13.0634C9.31722 11.9345 9.19347 11.1841 8.90109 10.5411C8.55341 9.77594 8.81116 9.49062 9.60628 9.31962C10.7115 9.08187 11.5747 8.39981 12.0558 7.38412C12.5132 6.41862 12.5822 5.08438 11.7552 4.27292C11.52 3.99344 11.5036 3.74029 11.6715 2.97693C11.7343 2.69162 11.7869 2.32355 11.7885 2.15891C11.7908 1.89889 11.7672 1.85963 11.6075 1.85963C11.5064 1.85963 11.1203 2.00664 10.7495 2.18628L10.1578 2.47309C10.104 2.49916 10.0438 2.50919 9.98441 2.50237C8.47972 2.32966 7.04997 2.32699 5.53792 2.50305C5.47832 2.50999 5.41786 2.49996 5.36388 2.47376L4.77244 2.18676C4.40165 2.00679 4.01554 1.85963 3.91451 1.85963C3.68091 1.85963 3.6774 2.03209 3.89033 3.05674C4.02039 3.68252 4.10792 3.82196 3.73191 4.32232C3.16831 5.07235 3.02753 6.0037 3.32976 6.98225C3.71068 8.21537 4.64347 9.04844 5.95486 9.32637C6.74541 9.49394 6.95203 9.71256 6.65016 10.6191C6.41253 11.3324 6.26228 11.5163 5.91695 11.5163C5.45231 11.5163 5.16126 11.1138 5.32143 10.6926C5.39198 10.507 5.37099 10.4872 4.93573 10.3284C3.60701 9.844 2.59074 8.75819 2.12611 7.32644C1.76698 6.2199 1.92499 4.77962 2.50113 3.90908C2.69729 3.61267 2.70033 3.58754 2.60878 3.02011C2.55699 2.69889 2.52898 2.18189 2.54653 1.87112Z" fill="#15DFB9"/>
<path d="M2.08247 9.96588C1.891 9.67869 1.50296 9.60107 1.21575 9.79257C0.928555 9.98401 0.850942 10.3721 1.04241 10.6593C1.18377 10.8713 1.35287 11.0455 1.49648 11.1891C1.52295 11.2156 1.54868 11.2411 1.5738 11.2661C1.69409 11.3856 1.8003 11.4911 1.90698 11.6163C2.14292 11.8933 2.3783 12.2663 2.51208 12.9351C2.57167 13.2331 2.78582 13.3936 2.90449 13.4637C3.03317 13.5397 3.17378 13.5845 3.28949 13.6137C3.52618 13.6734 3.81351 13.7044 4.0862 13.7224C4.38555 13.7423 4.7099 13.7488 4.99995 13.7505C5.00016 14.0954 5.2799 14.3751 5.62494 14.3751C5.97012 14.3751 6.24994 14.0953 6.24994 13.7501V13.1251C6.24994 12.7799 5.97012 12.5001 5.62494 12.5001C5.56602 12.5001 5.50228 12.5003 5.43476 12.5005C5.06797 12.5016 4.58988 12.5031 4.16882 12.4752C3.96577 12.4618 3.79886 12.4427 3.67646 12.4194C3.48797 11.6794 3.18347 11.1871 2.85854 10.8057C2.7149 10.6371 2.56616 10.4896 2.44518 10.3696C2.42253 10.3472 2.40085 10.3257 2.38036 10.3052C2.24077 10.1656 2.14945 10.0664 2.08247 9.96588Z" fill="#15DFB9"/>
</svg>
