<svg width="15" height="15" viewBox="0 0 15 15" fill="none" xmlns="http://www.w3.org/2000/svg">
<g clip-path="url(#clip0_777_14)">
<path d="M7.49371 3.63648C6.47219 3.63648 5.49253 4.04165 4.7702 4.76285C4.04788 5.48405 3.64209 6.4622 3.64209 7.48213C3.64209 8.50206 4.04788 9.48017 4.7702 10.2014C5.49253 10.9226 6.47219 11.3277 7.49371 11.3277C8.51522 11.3277 9.49486 10.9226 10.2172 10.2014C10.9395 9.48017 11.3453 8.50206 11.3453 7.48213C11.3453 6.4622 10.9395 5.48405 10.2172 4.76285C9.49486 4.04165 8.51522 3.63648 7.49371 3.63648ZM7.49371 9.97967C6.83008 9.97967 6.19363 9.71638 5.72437 9.24785C5.25512 8.77936 4.99149 8.14389 4.99149 7.4813C4.99149 6.8187 5.25512 6.18324 5.72437 5.71471C6.19363 5.24618 6.83008 4.98296 7.49371 4.98296C8.15734 4.98296 8.79379 5.24618 9.26307 5.71471C9.7323 6.18324 9.99595 6.8187 9.99595 7.4813C9.99595 8.14389 9.7323 8.77936 9.26307 9.24785C8.79379 9.71638 8.15734 9.97967 7.49371 9.97967Z" fill="#15DFB9"/>
<path d="M11.4981 4.3912C11.994 4.3912 12.396 3.98981 12.396 3.49466C12.396 2.99952 11.994 2.59813 11.4981 2.59813C11.0021 2.59813 10.6001 2.99952 10.6001 3.49466C10.6001 3.98981 11.0021 4.3912 11.4981 4.3912Z" fill="#15DFB9"/>
<path d="M14.6027 2.58317C14.4099 2.08598 14.1152 1.63447 13.7375 1.25754C13.3599 0.880601 12.9075 0.586553 12.4095 0.394211C11.8267 0.175779 11.211 0.0576689 10.5886 0.0449101C9.78644 0.00997994 9.53241 0 7.49833 0C5.46424 0 5.20352 -8.21755e-08 4.40804 0.0449101C3.78614 0.0570166 3.17089 0.175151 2.58885 0.394211C2.09068 0.586329 1.63824 0.880298 1.26056 1.25726C0.882865 1.63422 0.588262 2.08585 0.395658 2.58317C0.176842 3.16502 0.0588193 3.77981 0.0466459 4.40119C0.0108285 5.20127 0 5.45493 0 7.48669C0 9.51759 -3.28702e-09 9.77629 0.0466459 10.5722C0.0591404 11.1942 0.176588 11.8081 0.395658 12.3911C0.588803 12.8882 0.883685 13.3397 1.26147 13.7165C1.63925 14.0935 2.09163 14.3876 2.58968 14.58C3.17062 14.8072 3.78612 14.9338 4.40971 14.9543C5.21185 14.9891 5.4659 15 7.5 15C9.53409 15 9.79482 15 10.5903 14.9543C11.2126 14.9416 11.8283 14.8238 12.4112 14.6058C12.9091 14.413 13.3612 14.1187 13.7389 13.7417C14.1165 13.3646 14.4113 12.9131 14.6044 12.416C14.8234 11.8339 14.9409 11.2201 14.9533 10.5979C14.9891 9.79791 15 9.54424 15 7.51248C15 5.48071 15 5.22289 14.9533 4.42698C14.9436 3.7968 14.825 3.17303 14.6027 2.58317ZM13.5881 10.5107C13.5828 10.99 13.4951 11.4648 13.3291 11.9145C13.204 12.2379 13.0125 12.5316 12.7669 12.7766C12.5213 13.0218 12.227 13.2128 11.903 13.3375C11.4576 13.5026 10.9871 13.59 10.512 13.5962C9.72071 13.6327 9.49747 13.6419 7.46835 13.6419C5.43759 13.6419 5.23017 13.6419 4.42387 13.5962C3.94901 13.5904 3.47873 13.5028 3.03365 13.3375C2.70853 13.2136 2.41309 13.0228 2.16645 12.7777C1.9198 12.5326 1.72743 12.2385 1.60179 11.9145C1.43807 11.4696 1.35049 11.0004 1.34274 10.5265C1.30691 9.73632 1.29859 9.51344 1.29859 7.48752C1.29859 5.46075 1.29859 5.25366 1.34274 4.44777C1.34812 3.96874 1.43574 3.4942 1.60179 3.04474C1.85584 2.38856 2.37644 1.87209 3.03365 1.62093C3.47894 1.45637 3.9491 1.3689 4.42387 1.36227C5.21601 1.32651 5.43842 1.31653 7.46835 1.31653C9.49827 1.31653 9.7065 1.31653 10.512 1.36227C10.9871 1.36798 11.4577 1.45549 11.903 1.62093C12.227 1.7459 12.5212 1.93713 12.7668 2.18232C13.0124 2.42753 13.2039 2.72128 13.3291 3.04474C13.4928 3.48964 13.5804 3.95888 13.5881 4.4328C13.624 5.22372 13.6331 5.44578 13.6331 7.47256C13.6331 9.49853 13.6331 9.71638 13.5973 10.5115L13.5881 10.5107Z" fill="#15DFB9"/>
</g>
<defs>
<clipPath id="clip0_777_14">
<rect width="15" height="15" fill="white"/>
</clipPath>
</defs>
</svg>
