<svg width="17" height="16" viewBox="0 0 17 16" fill="none" xmlns="http://www.w3.org/2000/svg">
<path d="M8.83337 0C4.43187 0 0.833374 3.5985 0.833374 8C0.833374 12.4015 4.43187 16 8.83337 16C13.2349 16 16.8334 12.4015 16.8334 8C16.8334 3.5985 13.2734 0 8.83337 0ZM12.5134 11.56C12.3539 11.7995 12.0729 11.88 11.8334 11.7185C9.95337 10.56 7.59387 10.32 4.79187 10.9585C4.51337 11.041 4.27337 10.841 4.19237 10.5985C4.11437 10.32 4.31237 10.0805 4.55187 10C7.59387 9.32 10.2344 9.5985 12.3124 10.88C12.5939 11 12.6329 11.32 12.5134 11.56ZM13.4739 9.3595C13.2734 9.641 12.9139 9.761 12.6324 9.56C10.4739 8.2395 7.19237 7.8415 4.67437 8.6405C4.35387 8.7185 3.99187 8.56 3.91387 8.239C3.83337 7.919 3.99187 7.5595 4.31237 7.479C7.23437 6.5985 10.8329 7.041 13.3124 8.5595C13.5544 8.6795 13.6744 9.0805 13.4739 9.3595ZM13.5549 7.12C10.9924 5.5985 6.71337 5.44 4.27337 6.2005C3.87287 6.32 3.47387 6.0805 3.35387 5.7185C3.23437 5.32 3.47387 4.919 3.83337 4.799C6.67487 3.9585 11.3539 4.1195 14.3154 5.8795C14.6749 6.08 14.7939 6.5595 14.5939 6.919C14.3934 7.2005 13.9139 7.3195 13.5544 7.1195L13.5549 7.12Z" fill="#15DFB9"/>
</svg>
