<svg width="15" height="15" viewBox="0 0 15 15" fill="none" xmlns="http://www.w3.org/2000/svg">
<path d="M12.9435 2.28406C12.9435 2.28406 14.1577 1.81062 14.0565 2.9604C14.0228 3.43384 13.7192 5.09087 13.4832 6.88319L12.6737 12.1925C12.6737 12.1925 12.6063 12.9702 11.9992 13.1055C11.3921 13.2408 10.4815 12.6321 10.3128 12.4968C10.1779 12.3954 7.78337 10.8736 6.94019 10.1296C6.70409 9.92672 6.43428 9.52091 6.97391 9.04747L10.5152 5.66578C10.9199 5.25997 11.3247 4.31309 9.63831 5.46287L4.91659 8.6755C4.91659 8.6755 4.37697 9.01366 3.36519 8.70931L1.17294 8.03297C1.17294 8.03297 0.363503 7.52572 1.7463 7.01844C5.11897 5.42903 9.26734 3.80581 12.9435 2.28406Z" fill="#15DFB9"/>
</svg>
