<svg width="15" height="13" viewBox="0 0 15 13" fill="none" xmlns="http://www.w3.org/2000/svg">
<path d="M14.3629 1.56156C14.1361 1.66273 13.9029 1.74813 13.6647 1.81747C13.9468 1.49658 14.1618 1.11903 14.2931 0.705873C14.3225 0.61327 14.292 0.511903 14.2164 0.451322C14.1408 0.390712 14.0357 0.383451 13.9525 0.433056C13.4465 0.734916 12.9006 0.951858 12.3282 1.07869C11.7516 0.511988 10.9685 0.189453 10.1589 0.189453C8.45003 0.189453 7.05972 1.58788 7.05972 3.30675C7.05972 3.44212 7.06824 3.57675 7.0851 3.70952C4.96451 3.52224 2.99303 2.47383 1.63924 0.803439C1.59099 0.743907 1.51667 0.7118 1.44056 0.717955C1.36443 0.723939 1.296 0.767135 1.25754 0.833531C0.982953 1.30744 0.837795 1.84947 0.837795 2.40097C0.837795 3.15212 1.1044 3.86477 1.57537 4.42167C1.43216 4.37178 1.2932 4.30944 1.16057 4.23538C1.08937 4.19551 1.00247 4.19613 0.931719 4.23691C0.860945 4.27773 0.816562 4.35275 0.814673 4.43477C0.814335 4.44858 0.814335 4.46239 0.814335 4.4764C0.814335 5.59759 1.41425 6.60703 2.33148 7.1572C2.25267 7.14929 2.17394 7.1378 2.09569 7.12277C2.01502 7.10726 1.93209 7.1357 1.8777 7.19759C1.82322 7.25942 1.80518 7.34561 1.8303 7.42432C2.16979 8.49048 3.04387 9.27467 4.10056 9.51376C3.22414 10.0659 2.2219 10.3551 1.16979 10.3551C0.950244 10.3551 0.729462 10.3422 0.513388 10.3164C0.406042 10.3036 0.303405 10.3674 0.266833 10.4701C0.230262 10.5728 0.269033 10.6873 0.360335 10.7462C1.71196 11.6179 3.27481 12.0786 4.87987 12.0786C8.0352 12.0786 10.0091 10.582 11.1093 9.32646C12.4813 7.76089 13.2681 5.68869 13.2681 3.64122C13.2681 3.55568 13.2668 3.46932 13.2642 3.38321C13.8055 2.97301 14.2715 2.47656 14.6508 1.90596C14.7084 1.81932 14.7021 1.70476 14.6354 1.62501C14.5688 1.54511 14.4577 1.5193 14.3629 1.56156Z" fill="#15DFB9"/>
</svg>
